<svg width="262" height="81" viewBox="0 0 262 81" fill="none" xmlns="http://www.w3.org/2000/svg">
<path d="M20.69 20.885L11.69 20.165L10.25 32.18L5.3 32.405L3.185 2.75L23.03 2.12L22.895 5.135L13.4 6.26L12.095 16.925L20.465 16.835L20.69 20.885ZM53.4598 32L35.8648 32.405L33.7498 2.75L53.5948 2.12L53.4598 5.135L43.9648 6.26L42.7948 15.575L52.3798 15.485L52.6048 19.535L42.4348 18.77L41.2198 28.805L53.6398 27.365L53.4598 32ZM75.5309 20.57C74.9909 20.75 74.5559 20.84 74.2259 20.84L73.0109 32.18L68.5109 32.63L65.9459 3.65C67.5359 3.14 69.6359 2.675 72.2459 2.255C74.8859 1.835 77.4059 1.625 79.8059 1.625C83.6459 1.625 86.7209 2.345 89.0309 3.785C89.5709 5.405 89.8409 6.89 89.8409 8.24C89.8409 12.02 87.6659 15.14 83.3159 17.6L90.8759 31.955L87.7259 33.71L75.5309 20.57ZM81.1559 9.455C81.1559 7.325 80.2109 5.69 78.3209 4.55C77.6009 4.55 76.7909 4.7 75.8909 5L74.5409 17.96C76.6109 17.03 78.2309 15.785 79.4009 14.225C80.5709 12.635 81.1559 11.045 81.1559 9.455ZM126.748 2.3L124.813 32L120.763 32.675L106.183 8.555H105.823L105.958 32L101.458 32.225L102.673 2.75L113.563 2.075L121.438 24.53H121.798L122.248 2.525L126.748 2.3ZM135.09 32L143.505 2.075L154.395 2.75L160.245 32L156.195 32.675L153.09 25.205L141.12 26.195L139.59 32.675L135.09 32ZM145.485 7.745L141.93 22.73L152.1 22.82L145.845 7.745H145.485ZM196.095 2.3L194.16 32L190.11 32.675L175.53 8.555H175.17L175.305 32L170.805 32.225L172.02 2.75L182.91 2.075L190.785 24.53H191.145L191.595 2.525L196.095 2.3ZM207.497 3.65C211.907 2.24 216.077 1.535 220.007 1.535C223.967 1.535 227.192 2.135 229.682 3.335C230.672 5.765 231.167 8.3 231.167 10.94C231.167 14.51 230.297 17.915 228.557 21.155C226.847 24.395 224.342 27.095 221.042 29.255C217.772 31.385 214.112 32.51 210.062 32.63L207.497 3.65ZM223.157 14C223.157 11.81 222.827 9.86 222.167 8.15C221.537 6.44 220.622 5.24 219.422 4.55C218.882 4.55 218.222 4.655 217.442 4.865L214.967 28.85C217.667 27.74 219.707 25.805 221.087 23.045C222.467 20.255 223.157 17.24 223.157 14ZM261.511 22.685C261.511 24.515 261.361 26.045 261.061 27.275C260.761 28.475 260.221 29.54 259.441 30.47C257.941 32.21 255.031 33.08 250.711 33.08C246.421 33.08 243.091 32.105 240.721 30.155C240.211 27.635 239.956 25.145 239.956 22.685C239.956 17.705 240.886 13.25 242.746 9.32C244.636 5.39 246.826 2.6 249.316 0.949997C252.826 2.39 255.736 5.09 258.046 9.05C260.356 12.98 261.511 17.525 261.511 22.685ZM256.066 20.66C256.066 16.04 255.301 12.08 253.771 8.78C250.861 11.45 248.581 14.54 246.931 18.05C245.311 21.56 244.501 25.01 244.501 28.4C245.521 28.61 246.736 28.715 248.146 28.715C250.906 28.715 253.276 28.37 255.256 27.68C255.796 25.34 256.066 23 256.066 20.66ZM0.05 79L6.595 55.725L15.065 56.25L19.615 79L16.465 79.525L14.05 73.715L4.74 74.485L3.55 79.525L0.05 79ZM8.135 60.135L5.37 71.79L13.28 71.86L8.415 60.135H8.135ZM39.2385 79L26.2535 79.315L24.6085 56.25L32.9385 55.725L30.4185 76.48L39.3785 75.395L39.2385 79ZM40.4244 56.215L58.3094 55.725L58.2044 58.07L53.3044 58.56L51.1344 79.14L47.2844 79.49L45.5344 59.33L40.6344 59.82L40.4244 56.215ZM57.9846 79L64.5296 55.725L72.9996 56.25L77.5496 79L74.3996 79.525L71.9846 73.715L62.6746 74.485L61.4846 79.525L57.9846 79ZM66.0696 60.135L63.3046 71.79L71.2146 71.86L66.3496 60.135H66.0696ZM106.203 79.525L101.198 60.905H100.918L97.1031 79L93.9531 79.525L86.3581 62.27H86.1481L85.5881 79L82.0881 79.175L83.7331 56.25L92.2031 55.9L95.7381 72.56L99.8331 55.725L108.303 56.25L109.353 79L106.203 79.525ZM117.594 79.49L115.599 56.25L123.929 55.725L121.444 79.14L117.594 79.49ZM138.127 70.11C137.707 70.25 137.369 70.32 137.112 70.32L136.167 79.14L132.667 79.49L130.672 56.95C131.909 56.5533 133.542 56.1917 135.572 55.865C137.626 55.5383 139.586 55.375 141.452 55.375C144.439 55.375 146.831 55.935 148.627 57.055C149.047 58.315 149.257 59.47 149.257 60.52C149.257 63.46 147.566 65.8867 144.182 67.8L150.062 78.965L147.612 80.33L138.127 70.11ZM142.502 61.465C142.502 59.8083 141.767 58.5367 140.297 57.65C139.737 57.65 139.107 57.7667 138.407 58L137.357 68.08C138.967 67.3567 140.227 66.3883 141.137 65.175C142.047 63.9383 142.502 62.7017 142.502 61.465ZM152.867 79L159.412 55.725L167.882 56.25L172.432 79L169.282 79.525L166.867 73.715L157.557 74.485L156.367 79.525L152.867 79ZM160.952 60.135L158.187 71.79L166.097 71.86L161.232 60.135H160.952ZM196.641 55.9L195.136 79L191.986 79.525L180.646 60.765H180.366L180.471 79L176.971 79.175L177.916 56.25L186.386 55.725L192.511 73.19H192.791L193.141 56.075L196.641 55.9ZM217.269 71.755C217.269 73.1783 217.153 74.3683 216.919 75.325C216.686 76.2583 216.266 77.0867 215.659 77.81C214.493 79.1633 212.229 79.84 208.869 79.84C205.533 79.84 202.943 79.0817 201.099 77.565C200.703 75.605 200.504 73.6683 200.504 71.755C200.504 67.8817 201.228 64.4167 202.674 61.36C204.144 58.3033 205.848 56.1333 207.784 54.85C210.514 55.97 212.778 58.07 214.574 61.15C216.371 64.2067 217.269 67.7417 217.269 71.755ZM213.034 70.18C213.034 66.5867 212.439 63.5067 211.249 60.94C208.986 63.0167 207.213 65.42 205.929 68.15C204.669 70.88 204.039 73.5633 204.039 76.2C204.833 76.3633 205.778 76.445 206.874 76.445C209.021 76.445 210.864 76.1767 212.404 75.64C212.824 73.82 213.034 72 213.034 70.18Z" fill="#F0F0F0"/>
</svg>
